<svg width="185" height="178" viewBox="0 0 185 178" fill="none" xmlns="http://www.w3.org/2000/svg">
<path d="M184.729 88.9688C184.729 88.8815 184.729 88.7942 184.729 88.6945C184.654 76.8477 180.8 65.0259 173.206 55.4737C167.906 48.8021 160.86 43.9386 154.413 38.4767C148.814 33.738 144.474 27.6774 139.836 22.0159C131.443 12.1394 120.382 5.66737 108.298 2.6745C108.136 2.63709 107.974 2.59968 107.824 2.5498C107.326 2.4251 106.827 2.3004 106.315 2.18816C102.15 1.24042 97.8731 0.69173 93.6207 0.542087C93.1219 0.504676 92.6979 0.492206 92.436 0.504676C92.1243 0.504676 91.6504 0.504676 91.1017 0.542087C87.1985 0.69173 83.2704 1.1656 79.4046 1.9637C70.426 3.70954 61.7841 7.32592 54.5015 12.9126C48.0294 17.8758 43.1535 24.3977 38.0282 30.6578C27.9522 42.9535 13.3246 49.8371 5.91725 64.5645C3.39826 69.59 1.73971 74.9398 0.879261 80.3893C0.779499 81.0003 0.692207 81.6238 0.604915 82.2473C0.567504 82.5591 0.517623 82.8833 0.480212 83.1951C0.355509 84.3049 0.280688 85.4148 0.230807 86.5247C0.230807 86.6369 0.218336 86.7616 0.218336 86.8738C0.168455 88.0086 0.168455 89.1434 0.205866 90.2782C0.205866 90.4403 0.205866 90.6024 0.205866 90.7645C0.243277 91.7497 0.305628 92.7348 0.39292 93.7075C0.442801 94.2437 0.492682 94.78 0.555034 95.3162C0.617385 95.8524 0.692207 96.3886 0.767029 96.9249C2.11382 106.153 5.76761 115.044 11.7284 122.526C16.704 128.774 23.2385 133.563 29.3738 138.588C34.7735 143.015 38.9011 148.427 43.3031 153.802C47.9421 159.463 53.242 164.152 59.0905 167.831C59.1155 167.843 59.1279 167.856 59.1529 167.881C59.1778 167.893 59.2027 167.918 59.2402 167.931C59.527 168.118 59.8138 168.292 60.1131 168.467C77.3719 179.466 101.228 180.388 119.509 171.41C121.417 170.475 123.25 169.402 125.008 168.23C131.568 164.165 137.479 158.852 142.754 152.418C147.205 146.981 151.483 141.918 156.932 137.453C163.118 132.39 169.502 127.552 174.316 121.067C181.237 111.74 184.679 100.491 184.729 89.2432C184.729 89.1434 184.729 89.0436 184.729 88.9439V88.9688ZM67.0091 162.88C60.0008 157.106 55.0501 149.25 53.1048 140.583C52.8055 139.274 53.7158 138.002 55.0501 137.852C56.0478 137.74 57.0454 137.615 58.043 137.441C73.7306 134.71 85.8143 124.634 92.3113 111.316C92.9473 112.65 93.6207 113.959 94.3689 115.231C101.938 128.001 114.907 135.745 129.036 137.703C129.336 135.807 129.473 133.887 129.46 131.966C120.956 129.797 113.324 123.773 108.124 116.017C98.5839 101.788 97.4366 82.4344 105.106 67.1084C109.333 58.666 116.803 50.6975 125.694 47.0188C129.111 45.6097 132.678 48.6524 131.992 52.2813C130.333 61.0479 125.657 69.2284 118.649 75.1518C114.122 78.9801 108.984 81.6986 103.609 83.2948C103.397 85.0906 103.298 86.8988 103.298 88.7069C103.298 88.7069 103.285 88.7069 103.273 88.7069C103.273 88.8566 103.273 89.0187 103.285 89.1683C103.285 89.2681 103.285 89.3679 103.285 89.4801C103.285 89.4801 103.285 89.4801 103.298 89.4801C103.323 91.201 103.422 92.9219 103.622 94.6179C115.793 98.3714 126.143 107.649 130.533 119.833C135.982 134.947 130.807 152.006 118.649 162.282C118.1 162.743 117.526 163.179 116.953 163.603C101.327 174.615 82.0483 173.966 67.0216 162.893L67.0091 162.88ZM67.0091 15.1323C83.9064 2.59968 104.595 4.42034 119.833 16.8033C124.547 21.143 128.301 26.5426 130.508 32.6905C131.069 34.2492 131.505 35.833 131.842 37.4292C132.104 38.7011 131.219 39.9357 129.934 40.0853C118.013 41.5194 106.69 47.0687 98.7585 56.5212C96.1646 59.6013 94.0197 62.9808 92.3113 66.5597C86.8743 55.324 77.4592 46.2955 64.9017 42.1928C61.9088 41.2201 58.8411 40.5592 55.7485 40.1477C55.4741 42.0058 55.3494 43.8763 55.3868 45.7219C55.4367 45.7344 55.4991 45.7468 55.549 45.7593C74.2793 50.9469 84.4426 70.6999 84.7668 88.9564C84.4675 105.43 76.6237 122.227 61.385 129.871C60.5745 130.27 59.7764 130.632 58.9658 130.944C55.5988 132.253 52.0947 129.435 52.7057 125.881V125.806C55.337 110.904 67.0091 99.0573 81.113 94.6303C81.3749 92.685 81.5245 90.777 81.5619 88.9439C81.5245 87.0983 81.3499 85.1903 81.0881 83.2824C77.5964 82.2349 74.1795 80.701 70.9497 78.6185C57.619 70.0265 49.9373 54.501 52.7182 38.6762C54.277 29.7974 59.0406 22.0034 65.6125 16.2172C66.0739 15.8431 66.5228 15.4565 66.9967 15.1074L67.0091 15.1323ZM170.949 94.2313C169.652 107.35 164.252 117.675 155.336 125.444C154.738 125.968 154.151 126.442 153.578 126.878C150.236 129.447 145.435 127.577 144.462 123.474C144.462 123.449 144.45 123.424 144.437 123.399C139.786 104.245 123.387 92.897 105.243 89.0811C110.206 88.071 115.02 86.4872 119.497 84.2925C131.805 78.2444 141.332 67.1708 144.437 54.2765C145.397 50.2611 150.099 48.5402 153.466 50.9345C154.7 51.8074 155.86 52.7551 156.97 53.7652C167.071 64.6892 172.458 78.843 170.936 94.2188L170.949 94.2313ZM27.9522 53.7777C29.0621 52.7676 30.2343 51.8199 31.4564 50.9469C34.8234 48.5527 39.5246 50.286 40.4849 54.289C43.59 67.1708 53.1172 78.2569 65.4254 84.3049C69.9022 86.4997 74.7158 88.0834 79.6789 89.0935C61.5347 92.9094 45.1363 104.245 40.4849 123.412C40.4849 123.437 40.4724 123.462 40.4599 123.487C39.4748 127.577 34.6737 129.447 31.3441 126.891C30.7705 126.454 30.1844 125.981 29.5858 125.457C20.6696 117.7 15.27 107.362 13.9731 94.2437C12.4517 78.8679 17.8388 64.7141 27.9398 53.7902L27.9522 53.7777Z" fill="#2A136A"/>
</svg>
