<svg width="28" height="28" viewBox="0 0 28 28" fill="none" xmlns="http://www.w3.org/2000/svg">
    <rect width="28" height="28" fill="#4CA3FF"/>
    <path fill-rule="evenodd" clip-rule="evenodd" d="M18.8327 12.3413V12.3422C19.6482 13.3653 20.136 14.6613 20.136 16.0705C20.136 17.4798 19.6337 18.8143 18.7957 19.8443L18.7235 19.933L18.7045 19.8203C18.6882 19.7245 18.669 19.6275 18.647 19.53C18.2277 17.6875 16.8612 16.1075 14.6125 14.8282C13.094 13.9668 12.2247 12.9292 11.9965 11.7508C11.849 10.9885 11.9587 10.223 12.1705 9.56725C12.3822 8.91175 12.6972 8.3625 12.9647 8.032L13.8395 6.96225C13.993 6.77475 14.28 6.77475 14.4335 6.96225L18.833 12.3415L18.8327 12.3413ZM20.2165 11.2725V11.272L14.353 4.10275C14.241 3.96575 14.0315 3.96575 13.9195 4.10275L8.056 11.2723V11.2728L8.037 11.2965C6.95825 12.6353 6.3125 14.3368 6.3125 16.189C6.3125 20.5028 9.81525 24 14.1363 24C18.4572 24 21.96 20.5028 21.96 16.189C21.96 14.3368 21.3142 12.6353 20.2352 11.2963L20.216 11.2725H20.2165ZM9.45925 12.318L9.98375 11.6765L9.9995 11.795C10.012 11.8887 10.0272 11.983 10.0452 12.0778C10.3845 13.8582 11.5967 15.3428 13.6235 16.4925C15.3852 17.495 16.411 18.648 16.7065 19.9125C16.8298 20.4403 16.8517 20.9595 16.7985 21.4135L16.7952 21.4415L16.7697 21.454C15.9747 21.8425 15.0807 22.0605 14.136 22.0605C10.8225 22.0605 8.13625 19.3788 8.13625 16.0705C8.13625 14.6503 8.6315 13.345 9.459 12.3183L9.45925 12.318Z" fill="white"/>
</svg>
