<svg width="64" height="64" fill="none" xmlns="http://www.w3.org/2000/svg"><rect width="64" height="64" rx="24" fill="url(#paint0_radial_305_12516)"/><path d="M51.5 43.6c-3.9 0-7.6-3.9-9.5-6.4-1.9 2.5-5.6 6.4-9.5 6.4-4 0-7.7-3.9-9.5-6.4-1.8 2.5-5.5 6.4-9.5 6.4-.8 0-1.5-.6-1.5-1.5 0-.8.7-1.5 1.5-1.5 3.2 0 7.1-5.1 8.2-6.9.3-.4.8-.7 1.3-.7s1 .2 1.3.7c1.1 1.8 5 6.9 8.2 6.9 3.1 0 7.1-5.1 8.2-6.9.3-.4.8-.7 1.3-.7s1 .2 1.2.7c1.1 1.8 5 6.9 8.2 6.9.9 0 1.6.7 1.6 1.5 0 .9-.6 1.5-1.5 1.5z" fill="#fff"/><path d="M51.5 52.3c-3.9 0-7.6-3.9-9.5-6.4-1.9 2.5-5.6 6.4-9.5 6.4-4 0-7.7-3.9-9.5-6.4-1.8 2.5-5.5 6.4-9.5 6.4-.8 0-1.5-.6-1.5-1.5 0-.8.7-1.5 1.5-1.5 3.2 0 7.1-5.1 8.2-6.9.3-.4.8-.7 1.3-.7s1 .3 1.3.7c1.1 1.8 5 6.9 8.2 6.9 3.1 0 7.1-5.1 8.2-6.9.3-.4.8-.7 1.3-.7s1 .3 1.2.7c1.1 1.8 5 6.9 8.2 6.9.9 0 1.6.7 1.6 1.5 0 .9-.6 1.5-1.5 1.5zM14.6 36.7c-.8 0-1.4-.5-1.6-1.3l-.3-3.6c0-10.9 8.9-19.8 19.8-19.8 11 0 19.8 8.9 19.8 19.8l-.3 3.6c-.1.8-.9 1.4-1.7 1.2-.9-.1-1.5-.9-1.3-1.8l.3-3c0-9.2-7.5-16.8-16.8-16.8-9.2 0-16.7 7.5-16.7 16.8l.2 3.1c.2.8-.3 1.6-1.1 1.8h-.3z" fill="#fff"/><defs><radialGradient id="paint0_radial_305_12516" cx="0" cy="0" r="1" gradientUnits="userSpaceOnUse" gradientTransform="matrix(52.75803 51.358 -51.43947 52.84172 0 7.407)"><stop stop-color="#0058DD"/><stop offset="1" stop-color="#67C8FF"/></radialGradient></defs></svg>