<?xml version="1.0" encoding="UTF-8"?>
<svg width="100px" height="100px" viewBox="0 0 100 100" version="1.1" xmlns="http://www.w3.org/2000/svg" xmlns:xlink="http://www.w3.org/1999/xlink">
    <title>logo</title>
    <g id="区块链" stroke="none" stroke-width="1" fill="none" fill-rule="evenodd">
        <g id="画板" transform="translate(-97.000000, -90.000000)">
            <g id="logo" transform="translate(97.000000, 90.000000)">
                <path d="M63.9144462,83.208723 C84.9643526,72.1825815 100,61.1564401 100,45.1184162 C100,24.0685099 59.3546502,7.21500376 36.8502809,6.02573298 C14.3459116,4.8364622 -6.2519083,45.1184162 1.76710365,75.189711 C9.7861156,105.261006 44.101632,93.5868638 63.9144462,83.208723 Z" id="椭圆形" fill="#4FC08D"></path>
                <path d="M70.3083729,19.0292117 C70.4973523,19.0698262 70.649669,19.1085272 70.7653231,19.1453149 C72.9869504,19.8519787 74.5963933,21.9318067 74.5963933,24.3875403 C74.5963933,26.7191905 73.1454853,28.711963 71.097269,29.512258 L71.0963933,33.8875403 C71.0963933,34.9921098 70.2009628,35.8875403 69.0963933,35.8875403 C67.9918238,35.8875403 67.0963933,34.9921098 67.0963933,33.8875403 L67.096519,29.5126491 C65.0477743,28.7126124 63.5963933,26.7195705 63.5963933,24.3875403 C63.5963933,22.0306027 65.0789432,20.019933 67.1623681,19.2372062 C67.3254685,19.1759306 67.5499694,19.1120825 67.8358709,19.0456617 C68.0510585,18.995689 68.2659862,19.1296656 68.3159154,19.3448633 C68.3226696,19.3739746 68.3261402,19.4037512 68.3262655,19.4336355 L68.3262816,19.6377508 L68.3262816,19.6377508 L68.3265264,22.9819167 C68.3265264,23.1239328 68.4252065,23.2429009 68.5577391,23.2739935 L68.6265264,23.2819167 L69.5265263,23.2819167 C69.6685424,23.2819167 69.7875105,23.1832366 69.8186031,23.050704 L69.8265264,22.9819167 L69.8273557,19.6377508 L69.8274055,19.4211051 C69.8269516,19.2001917 70.0056687,19.0207374 70.2265822,19.0202827 C70.2541018,19.020226 70.2815538,19.0230095 70.3083729,19.0292117 Z" id="路径" fill="#36495D" transform="translate(69.096393, 27.411625) rotate(-45.000000) translate(-69.096393, -27.411625) "></path>
                <g id="编组" transform="translate(20.812257, 23.322987)" fill="#36495D" fill-rule="nonzero">
                    <path d="M20.1993475,0.0411462283 C20.4738754,-0.0258099214 20.7649322,-0.010742943 21.0292481,0.0841072445 L21.0292481,0.0841072445 L30.6246823,3.51562386 C31.0771349,3.67710612 31.3954347,4.0502205 31.4537633,4.48748154 L31.4537633,4.48748154 L31.9577129,8.26062434 L39.1839928,10.8446311 C39.2296007,10.8610923 39.2741886,10.8797829 39.3175599,10.9006205 C41.6278973,11.7645398 43.1572268,13.3349647 43.7479448,15.456131 C44.7196067,18.9484197 43.5555608,21.5877562 42.3869626,23.2017193 L42.3869626,23.2017193 L43.0162848,23.4264294 L43.0162848,23.4264294 L43.0710956,23.4489303 C45.0415517,24.1786893 47.4513132,25.8579597 47.9679183,29.7297231 C48.9394891,37.0043076 45.0529326,41.9404472 36.7315299,44.0151069 L36.7315299,44.0151069 L37.5285621,49.9917097 C37.6081933,50.5850672 37.1933263,51.1409788 36.5557167,51.2952985 L36.5557167,51.2952985 L32.2423282,52.3425233 C31.9681091,52.4097734 31.6772075,52.3946996 31.4132472,52.2995624 L31.4132472,52.2995624 L30.3463492,51.9182736 C30.3277307,52.4478776 29.9283659,52.9039596 29.3632154,53.0410305 L29.3632154,53.0410305 L25.0510105,54.0871835 C24.9394985,54.1145355 24.8244734,54.1283306 24.708944,54.1283306 C24.5422361,54.1283306 24.3769817,54.1002555 24.2217473,54.045212 L24.2217473,54.045212 L14.6265862,50.6136128 C14.1740027,50.4519322 13.8556558,50.078623 13.7973231,49.641178 L13.7973231,49.641178 L13.658111,48.598241 L5.34927294,45.6273384 C4.88398252,45.4610752 4.56194387,45.0714419 4.51691421,44.6202709 L4.51691421,44.6202709 L4.05958122,40.0777063 C4.00076435,39.4964554 4.41266448,38.961876 5.03351927,38.8099047 L5.03351927,38.8099047 L8.34465384,38.0062626 C8.38334903,37.9968623 8.42413847,37.9807005 8.46392636,37.962642 L8.46392636,37.962642 L8.54313799,37.9170424 C8.55460996,37.9061579 8.57837342,37.8862029 8.60313844,37.8664953 C8.61424627,37.850993 8.62344205,37.838954 8.63136321,37.8265852 C8.65000244,37.7972554 8.66552006,37.7663869 8.67770656,37.7343964 C8.68234998,37.7248313 8.70265369,37.6815405 8.707115,37.6722227 C8.71858706,37.6422077 8.73452042,37.58762 8.74453564,37.528827 L8.74453564,37.528827 L8.75027167,37.4799291 C8.76008123,37.4105908 8.76609772,37.3408555 8.76829911,37.2709789 L8.76829911,37.2709789 L8.77057529,37.1881079 C8.76829911,37.0776134 8.76401983,36.9606046 8.74681183,36.8332059 L8.74681183,36.8332059 L6.54427503,20.3387549 L1.4299393,18.5095747 C0.9773814,18.3480372 0.65906087,17.9747719 0.60085822,17.5373873 L0.60085822,17.5373873 L0.00968494782,13.1025963 C-0.0695195692,12.509643 0.344457712,11.9540906 0.981255845,11.7987601 L0.981255845,11.7987601 L8.50207538,9.97386774 L7.72297961,4.13653752 C7.6427554,3.54315158 8.05784906,2.98702503 8.69573399,2.83327854 L8.69573399,2.83327854 L13.0079389,1.78679588 C13.2820706,1.71931578 13.5729684,1.734129 13.8370199,1.82901469 L13.8370199,1.82901469 L14.9050104,2.21088069 C14.9229166,1.68139345 15.3219504,1.22514014 15.8869607,1.0881237 L15.8869607,1.0881237 Z M30.138123,4.63186661 L25.825645,5.67826689 L26.7430424,12.5496286 C25.867618,12.7622069 24.8948636,12.9985334 23.8640207,13.2481357 L23.8640207,13.2481357 L22.9469874,6.37702146 L18.6345094,7.42342173 L19.5518158,14.2951957 C15.3797949,15.3072509 11.6795482,16.2056391 11.016661,16.3658285 L10.9403288,16.3842424 L10.9403288,16.3842424 L10.9198491,16.3891506 L11.5121149,20.8247663 C11.6016149,20.8028322 13.3140414,20.3878179 14.7474977,20.039595 C16.1883288,19.6904651 16.9652395,19.9433657 17.116743,21.0868198 C17.1925916,21.6520686 17.7581274,25.8877806 18.3381725,30.2327517 L18.4504929,31.0741218 C19.0117245,35.278231 19.5578336,39.3694926 19.6581596,40.1203375 C19.8676606,41.6910098 19.1429202,42.3883626 18.2833382,42.5971479 C17.9823897,42.6700557 17.5052415,42.785731 17.0057314,42.9068546 L16.6293097,42.9981357 C15.815061,43.1955979 15.0433199,43.3828103 14.9742067,43.3996355 L14.9742067,43.3996355 L15.4316307,47.9419526 C15.6128158,47.8975074 19.0454991,47.0647575 23.7725176,45.9178402 L23.7725176,45.9178402 L24.708944,52.9281446 L29.0213309,51.8819918 L28.085724,44.8716049 C29.0452397,44.6382345 30.0049138,44.4053987 30.9647457,44.1730976 L30.9647457,44.1730976 L31.9004438,51.1837319 L36.2126487,50.1361773 L35.2773148,43.1261201 C35.5919759,43.0493511 35.9036325,42.9734892 36.2137412,42.8986167 C45.0572119,40.752383 47.4355619,35.7404639 46.6521868,29.8732837 C45.9098695,24.3149805 40.7501481,24.072171 39.9538379,24.0646734 L39.8630272,24.0647315 C40.0644248,23.9049266 43.8887958,20.8702009 42.4617128,15.7492715 C41.2208227,11.2913095 35.5130375,10.8896535 31.0658088,11.5813166 L31.0658088,11.5813166 L30.138123,4.63186661 Z M31.7440237,29.4283368 C33.0372663,29.1140869 37.8378514,28.3958721 38.2961859,31.826894 C38.7539742,35.2622037 36.7765985,37.6622451 32.1742244,38.77923 C29.1087368,39.523007 27.896891,39.8168896 27.4258097,39.9313422 L27.4258097,39.9313422 L26.2040396,30.7724127 L29.5844615,29.9517018 C29.627345,29.9417243 30.4482317,29.742092 31.7440237,29.4283368 Z M27.5898778,17.2160459 C29.7440682,16.6926809 34.0384277,16.0230342 34.5048655,19.5263724 C34.9274182,22.6889914 32.8059139,24.4213652 31.3271159,24.9877736 L31.3271159,24.9877736 L25.6161441,26.3733263 L24.493616,17.9669969 C24.9705243,17.8515547 26.0316862,17.5939539 27.5898778,17.2160459 Z" id="形状结合"></path>
                </g>
            </g>
        </g>
    </g>
</svg>