<?xml version="1.0" encoding="UTF-8"?>
<svg width="100px" height="100px" viewBox="0 0 100 100" version="1.1" xmlns="http://www.w3.org/2000/svg" xmlns:xlink="http://www.w3.org/1999/xlink">
    <title>logo+字体</title>
    <g id="区块链" stroke="none" stroke-width="1" fill="none" fill-rule="evenodd">
        <g id="画板" transform="translate(-97.000000, -209.000000)">
            <g id="编组-3" transform="translate(97.000000, 209.000000)">
                <g id="编组-2" transform="translate(4.000000, 39.000000)">
                    <path d="M15.9786116,19.3021807 C21.2410881,16.5456454 25,13.78911 25,9.77960406 C25,4.51712747 14.8386625,0.30375094 9.21257023,0.00643324509 C3.58647791,-0.29088445 -1.56297707,9.77960406 0.441775912,17.2974278 C2.4465289,24.8152515 11.025408,21.8967159 15.9786116,19.3021807 Z" id="椭圆形" fill="#4FC08D"></path>
                    <path d="M17.6345883,3.27054106 C17.6563372,3.27595156 17.6752513,3.28121412 17.6913308,3.28632874 C18.2467376,3.46299468 18.6490983,3.98295169 18.6490983,4.59688509 C18.6490983,5.17979763 18.2863713,5.67799075 17.7743172,5.8780645 L17.7740983,6.97188509 C17.7740983,7.24802746 17.5502407,7.47188509 17.2740983,7.47188509 C16.997956,7.47188509 16.7740983,7.24802746 16.7740983,6.97188509 L16.7741298,5.87816228 C16.2619436,5.6781531 15.8990983,5.17989262 15.8990983,4.59688509 C15.8990983,4.00765067 16.2697358,3.50498326 16.790592,3.30930155 C16.8209411,3.29789962 16.8597941,3.28614138 16.9071509,3.27402685 C16.9819406,3.25490077 17.0580779,3.30001914 17.0772097,3.37480735 C17.0801045,3.38612326 17.0815695,3.39775739 17.0815704,3.40943769 L17.0815704,3.40943769 L17.0815704,3.40943769 L17.0816316,4.24547918 C17.0816316,4.2809832 17.1063016,4.31072523 17.1394348,4.31849838 L17.1566316,4.32047918 L17.3816316,4.32047918 C17.4171356,4.32047918 17.4468776,4.29580916 17.4546508,4.26267599 L17.4566316,4.24547918 L17.4568389,3.40943769 C17.4568571,3.33035733 17.5209791,3.26626478 17.6000595,3.26628297 C17.6117004,3.26628565 17.6232975,3.26770786 17.6345883,3.27054106 Z" id="路径" fill="#36495D" transform="translate(17.274098, 5.352906) rotate(-45.000000) translate(-17.274098, -5.352906) "></path>
                    <g id="编组" transform="translate(5.203064, 4.330747)" fill="#36495D" fill-rule="nonzero">
                        <path d="M5.04983689,0.0102865571 C5.11846886,-0.00645248034 5.19123304,-0.00268573574 5.25731202,0.0210268111 L5.25731202,0.0210268111 L7.65617059,0.878905964 C7.76928374,0.919276529 7.84885867,1.01255512 7.86344083,1.12187038 L7.86344083,1.12187038 L7.98942821,2.06515608 L9.79599821,2.71115777 C9.80740018,2.71527307 9.81854716,2.71994572 9.82938998,2.72515512 C10.4069743,2.94113494 10.7893067,3.33374119 10.9369862,3.86403276 C11.1799017,4.73710492 10.8888902,5.39693904 10.5967407,5.80042982 L10.5967407,5.80042982 L10.7400271,5.85155419 C10.7495871,5.85479067 10.7586691,5.85823332 10.7677739,5.86223257 C11.2603879,6.04467233 11.8628283,6.46448991 11.9919796,7.43243077 C12.2348723,9.2510769 11.2632331,10.4851118 9.18288247,11.0037767 L9.18288247,11.0037767 L9.38214053,12.4979274 C9.40204833,12.6462668 9.29833156,12.7852447 9.13892917,12.8238246 L9.13892917,12.8238246 L8.06058204,13.0856308 C7.99202728,13.1024433 7.91930186,13.0986749 7.85331179,13.0748906 L7.85331179,13.0748906 L7.58658731,12.9795684 C7.58193268,13.1119694 7.48209149,13.2259899 7.34080385,13.2602576 L7.34080385,13.2602576 L6.26275263,13.5217959 C6.23487463,13.5286339 6.20611835,13.5320827 6.17723601,13.5320827 C6.13555902,13.5320827 6.09424544,13.5250639 6.05543683,13.511303 L6.05543683,13.511303 L3.65664656,12.6534032 C3.54350067,12.6129831 3.46391396,12.5196558 3.44933078,12.4102945 L3.44933078,12.4102945 L3.41452776,12.1495603 L1.33731823,11.4068346 C1.22099563,11.3652688 1.14048597,11.2678605 1.12922855,11.1550677 L1.12922855,11.1550677 L1.01489531,10.0194266 C1.00019109,9.87411384 1.10316612,9.74046899 1.25837982,9.70247616 L1.25837982,9.70247616 L2.08616346,9.50156565 C2.09583726,9.49921558 2.10603462,9.49517512 2.11598159,9.4906605 L2.11598159,9.4906605 L2.1357845,9.47926059 C2.13865249,9.47653947 2.14459336,9.47155073 2.15078461,9.46662381 C2.15356157,9.46274825 2.15586051,9.45973851 2.1578408,9.45664631 C2.16250061,9.44931385 2.16638001,9.44159672 2.16942664,9.43359911 C2.1705875,9.43120782 2.17566342,9.42038512 2.17677875,9.41805567 C2.17964676,9.41055191 2.18363011,9.39690501 2.18613391,9.38220676 L2.18613391,9.38220676 L2.18756792,9.36998227 C2.19002031,9.3526477 2.19152443,9.33521388 2.19207478,9.31774472 L2.19207478,9.31774472 L2.19264382,9.29702698 C2.19207478,9.26940334 2.19100496,9.24015114 2.18670296,9.20830148 L2.18670296,9.20830148 L1.63606876,5.08468874 L0.357484826,4.62739369 C0.24434535,4.5870093 0.164765217,4.49369297 0.150214555,4.38434682 L0.150214555,4.38434682 L0.00242123696,3.27564907 C-0.0173798923,3.12741076 0.0861144279,2.98852266 0.245313961,2.94969002 L0.245313961,2.94969002 L2.12551884,2.49346693 L1.9307449,1.03413438 C1.91068885,0.885787896 2.01446227,0.746756258 2.1739335,0.708319635 L2.1739335,0.708319635 L3.25198472,0.44669897 C3.32051765,0.429828945 3.39324211,0.43353225 3.45925499,0.457253671 L3.45925499,0.457253671 L3.7262526,0.552720173 C3.73072915,0.420348362 3.83048761,0.306285035 3.97174016,0.272030924 L3.97174016,0.272030924 Z M7.53453076,1.15796665 L6.45641125,1.41956672 L6.68576061,3.13740714 C6.4669045,3.19055173 6.22371591,3.24963335 5.96600516,3.31203393 L5.96600516,3.31203393 L5.73674686,1.59425536 L4.65862735,1.85585543 L4.88795395,3.57379892 C3.76672333,3.84578877 2.78179123,4.08493947 2.72996228,4.09728765 L2.72996228,4.09728765 L2.87802873,5.20619157 C2.90040372,5.20070806 3.32851036,5.09695446 3.68687442,5.00989874 C4.04708219,4.92261627 4.24130987,4.98584143 4.27918574,5.27170496 C4.31772172,5.55888781 4.86186875,9.6358908 4.9145399,10.0300844 C4.96691515,10.4227525 4.78573005,10.5970907 4.57083455,10.649287 C4.35452779,10.7016895 3.77412097,10.842467 3.74355168,10.8499089 L3.74355168,10.8499089 L3.85790767,11.9854882 C3.90320394,11.9743769 4.76137478,11.7661894 5.9431294,11.47946 L5.9431294,11.47946 L6.17723601,13.2320362 L7.25533274,12.9704979 L7.02143101,11.2179012 L7.02143101,11.2179012 L7.74118643,11.0432744 L7.97511095,12.795933 L9.05316216,12.5340443 L8.81932871,10.78153 C8.89799397,10.7623378 8.97590812,10.7433723 9.05343529,10.7246542 C11.264303,10.1880958 11.8588905,8.93511598 11.6630467,7.46832091 C11.4834815,6.12377766 10.2699838,6.02337281 10.0111765,6.01657916 L9.96575679,6.01618288 C10.0161062,5.97623166 10.9721989,5.21755024 10.6154282,3.93731787 C10.3052057,2.82282738 8.87825938,2.72241336 7.7664522,2.89532915 L7.7664522,2.89532915 L7.53453076,1.15796665 Z M7.93600593,7.3570842 C8.25931658,7.27852172 9.45946285,7.09896802 9.57404648,7.95672349 C9.68849355,8.81555092 9.19414963,9.41556127 8.04355611,9.6948075 C7.2771842,9.88075176 6.97422274,9.95422241 6.85645243,9.98283556 L6.85645243,9.98283556 L6.5510099,7.69310318 L7.39611537,7.48792546 C7.40683624,7.48543109 7.61205793,7.435523 7.93600593,7.3570842 Z M6.89746945,4.30401148 C7.43601706,4.17317022 8.50960692,4.00575855 8.62621637,4.88159309 C8.73185454,5.67224785 8.20147847,6.10534129 7.83177898,6.2469434 L7.83177898,6.2469434 L6.40403602,6.59333157 L6.12340401,4.49174922 C6.24263107,4.46288868 6.50792154,4.39848847 6.89746945,4.30401148 Z" id="形状结合"></path>
                    </g>
                </g>
                <g id="CoinTool" transform="translate(32.600000, 45.080000)" fill="#4FC08D" fill-rule="nonzero">
                    <path d="M5.1,0 C3.39,0 2.085,0.555 1.185,1.695 C0.39,2.685 0,3.99 0,5.58 C0,7.2 0.375,8.49 1.14,9.45 C2.01,10.56 3.345,11.13 5.13,11.13 C6.285,11.13 7.275,10.8 8.1,10.14 C8.985,9.435 9.54,8.46 9.78,7.2 L8.07,7.2 C7.86,8.01 7.5,8.625 6.99,9.03 C6.51,9.39 5.88,9.585 5.115,9.585 C3.945,9.585 3.075,9.21 2.52,8.49 C2.01,7.815 1.755,6.84 1.755,5.58 C1.755,4.35 2.01,3.39 2.535,2.7 C3.105,1.92 3.945,1.545 5.07,1.545 C5.82,1.545 6.435,1.695 6.915,2.025 C7.41,2.355 7.74,2.865 7.92,3.57 L9.63,3.57 C9.465,2.49 9,1.62 8.22,0.99 C7.41,0.33 6.36,0 5.1,0 Z" id="路径"></path>
                    <path d="M14.88,2.955 C13.695,2.955 12.75,3.33 12.045,4.11 C11.325,4.875 10.98,5.85 10.98,7.05 C10.98,8.235 11.325,9.21 12.03,9.96 C12.75,10.74 13.695,11.13 14.88,11.13 C16.05,11.13 17.01,10.74 17.73,9.96 C18.42,9.21 18.78,8.235 18.78,7.05 C18.78,5.85 18.42,4.875 17.715,4.11 C16.995,3.33 16.05,2.955 14.88,2.955 Z M14.88,4.35 C15.585,4.35 16.14,4.62 16.53,5.19 C16.86,5.67 17.04,6.3 17.04,7.05 C17.04,7.785 16.86,8.4 16.53,8.895 C16.14,9.45 15.585,9.735 14.88,9.735 C14.16,9.735 13.62,9.45 13.23,8.895 C12.9,8.415 12.735,7.8 12.735,7.05 C12.735,6.3 12.9,5.67 13.23,5.19 C13.62,4.62 14.16,4.35 14.88,4.35 Z" id="形状"></path>
                    <path d="M21.435,0 C21.105,0 20.835,0.105 20.61,0.315 C20.385,0.525 20.28,0.795 20.28,1.125 C20.28,1.455 20.385,1.725 20.61,1.95 C20.835,2.16 21.105,2.265 21.435,2.265 C21.765,2.265 22.035,2.16 22.26,1.95 C22.485,1.74 22.605,1.455 22.605,1.125 C22.605,0.795 22.485,0.525 22.275,0.315 C22.05,0.105 21.765,0 21.435,0 Z M20.58,3.165 L20.58,10.92 L22.29,10.92 L22.29,3.165 L20.58,3.165 Z" id="形状"></path>
                    <path d="M28.41,2.955 C27.945,2.955 27.525,3.045 27.135,3.24 C26.76,3.42 26.415,3.705 26.115,4.065 L26.115,3.165 L24.405,3.165 L24.405,10.92 L26.115,10.92 L26.115,6.255 C26.175,5.64 26.385,5.16 26.745,4.83 C27.06,4.53 27.435,4.38 27.855,4.38 C29.025,4.38 29.61,5.01 29.61,6.285 L29.61,10.92 L31.32,10.92 L31.32,6.135 C31.32,4.005 30.345,2.955 28.41,2.955 Z" id="路径"></path>
                    <polygon id="路径" points="32.445 0.21 32.445 1.71 35.955 1.71 35.955 10.92 37.71 10.92 37.71 1.71 41.22 1.71 41.22 0.21"></polygon>
                    <path d="M45.945,2.955 C44.76,2.955 43.815,3.33 43.11,4.11 C42.39,4.875 42.045,5.85 42.045,7.05 C42.045,8.235 42.39,9.21 43.095,9.96 C43.815,10.74 44.76,11.13 45.945,11.13 C47.115,11.13 48.075,10.74 48.795,9.96 C49.485,9.21 49.845,8.235 49.845,7.05 C49.845,5.85 49.485,4.875 48.78,4.11 C48.06,3.33 47.115,2.955 45.945,2.955 Z M45.945,4.35 C46.65,4.35 47.205,4.62 47.595,5.19 C47.925,5.67 48.105,6.3 48.105,7.05 C48.105,7.785 47.925,8.4 47.595,8.895 C47.205,9.45 46.65,9.735 45.945,9.735 C45.225,9.735 44.685,9.45 44.295,8.895 C43.965,8.415 43.8,7.8 43.8,7.05 C43.8,6.3 43.965,5.67 44.295,5.19 C44.685,4.62 45.225,4.35 45.945,4.35 Z" id="形状"></path>
                    <path d="M54.945,2.955 C53.76,2.955 52.815,3.33 52.11,4.11 C51.39,4.875 51.045,5.85 51.045,7.05 C51.045,8.235 51.39,9.21 52.095,9.96 C52.815,10.74 53.76,11.13 54.945,11.13 C56.115,11.13 57.075,10.74 57.795,9.96 C58.485,9.21 58.845,8.235 58.845,7.05 C58.845,5.85 58.485,4.875 57.78,4.11 C57.06,3.33 56.115,2.955 54.945,2.955 Z M54.945,4.35 C55.65,4.35 56.205,4.62 56.595,5.19 C56.925,5.67 57.105,6.3 57.105,7.05 C57.105,7.785 56.925,8.4 56.595,8.895 C56.205,9.45 55.65,9.735 54.945,9.735 C54.225,9.735 53.685,9.45 53.295,8.895 C52.965,8.415 52.8,7.8 52.8,7.05 C52.8,6.3 52.965,5.67 53.295,5.19 C53.685,4.62 54.225,4.35 54.945,4.35 Z" id="形状"></path>
                    <polygon id="路径" points="60.495 0 60.495 10.92 62.205 10.92 62.205 0"></polygon>
                </g>
            </g>
        </g>
    </g>
</svg>